<?xml version="1.0" encoding="UTF-8" standalone="no"?>
<!-- Created with Inkscape (http://www.inkscape.org/) -->

<svg
   xmlns:dc="http://purl.org/dc/elements/1.1/"
   xmlns:cc="http://creativecommons.org/ns#"
   xmlns:rdf="http://www.w3.org/1999/02/22-rdf-syntax-ns#"
   xmlns:svg="http://www.w3.org/2000/svg"
   xmlns="http://www.w3.org/2000/svg"
   xmlns:sodipodi="http://sodipodi.sourceforge.net/DTD/sodipodi-0.dtd"
   xmlns:inkscape="http://www.inkscape.org/namespaces/inkscape"
   width="200"
   height="200"
   viewBox="0 0 52.916666 52.916666"
   version="1.1"
   id="svg8"
   inkscape:version="0.92.3 (2405546, 2018-03-11)"
   sodipodi:docname="logo.svg">
  <defs
     id="defs2" />
  <sodipodi:namedview
     id="base"
     pagecolor="#ffffff"
     bordercolor="#666666"
     borderopacity="1.0"
     inkscape:pageopacity="0.0"
     inkscape:pageshadow="2"
     inkscape:zoom="1.4"
     inkscape:cx="256.16146"
     inkscape:cy="73.529557"
     inkscape:document-units="mm"
     inkscape:current-layer="layer1"
     showgrid="false"
     units="px"
     inkscape:window-width="1853"
     inkscape:window-height="1025"
     inkscape:window-x="67"
     inkscape:window-y="27"
     inkscape:window-maximized="1" />
  <metadata
     id="metadata5">
    <rdf:RDF>
      <cc:Work
         rdf:about="">
        <dc:format>image/svg+xml</dc:format>
        <dc:type
           rdf:resource="http://purl.org/dc/dcmitype/StillImage" />
        <dc:title></dc:title>
      </cc:Work>
    </rdf:RDF>
  </metadata>
  <g
     inkscape:label="Layer 1"
     inkscape:groupmode="layer"
     id="layer1"
     transform="translate(0,-244.08334)">
    <g
       transform="matrix(0.1456953,0,0,-0.1456953,-47.317264,329.2549)"
       inkscape:label="ink_ext_XXXXXX"
       id="g823">
      <g
         transform="scale(0.1)"
         id="g825">
        <path
           style="fill:#60dbff;fill-opacity:0.94117647;fill-rule:nonzero;stroke:none"
           d="m 5982.49,3862.51 -0.32,0.14 z m -710.52,1221.88 -0.25,-0.02 z m 1021.81,-511.59 0.04,-1.14 z m -324.24,677.51 -0.82,-0.37 z M 3680.7,4859.13 c 730.2459,-405.9593 1471.5457,-793.6554 2231.59,-1141.07 106.9307,-64.7547 243.2169,55.6298 194.7569,169.8889 -137.8382,249.8727 -316.4173,475.4037 -470.4711,715.5877 -93.5585,142.6568 -189.025,284.7138 -267.8158,436.2634 295.6459,-174.3517 551.8201,-412.3286 861.9902,-562.1848 95.5469,-65.763 247.6063,12.1685 201.0035,135.6173 -79.7728,200.8419 -250.4464,346.2005 -369.7112,522.9587 -37.2929,52.1574 -111.6657,148.348 3.2006,93.6158 131.049,-24.8201 272.8209,-71.9432 403.4869,-27.257 114.5725,92.6955 192.6747,223.3731 290.5454,333.1185 38.8301,51.2444 200.9347,240.8018 75.8946,110.5615 -133.0677,-125.6445 -251.9658,-267.6607 -391.73,-385.14 -123.3633,-24.0509 -249.4489,32.0325 -368.54,62.22 -83.9301,61.7082 -238.3936,11.5986 -181.94,-107.29 92.9571,-219.1846 268.9276,-388.2236 383.24,-594.92 -318.1061,176.5783 -578.1959,442.5429 -901.31,611.0175 -76.2419,50.0316 -211.5187,32.1842 -220.78,-75.4375 1.5357,-144.5863 101.1062,-265.8328 166.5139,-388.3705 186.2638,-301.7401 398.1713,-586.3937 597.6261,-879.2995 -747.9019,318.5696 -1486.4516,658.9356 -2237.55,970.12 z"
           id="path827"
           inkscape:connector-curvature="0" />
        <path
           style="fill:#68a16f;fill-opacity:0.94117647;fill-rule:nonzero;stroke:none"
           d="m 4157.86,4137.49 0.33,-0.13 z m 710.53,-1221.88 0.24,0.02 z m -1021.81,511.59 -0.05,1.15 z m 324.23,-677.51 0.83,0.37 z m 2288.84,391.18 c -730.244,405.9619 -1471.5394,793.6699 -2231.59,1141.07 -106.924,64.7652 -243.2006,-55.6326 -194.7541,-169.8844 137.8488,-249.8664 316.4192,-475.4016 470.4733,-715.5851 93.5556,-142.6598 189.0323,-284.7133 267.8108,-436.2705 -295.636,174.3663 -551.8214,412.3237 -861.9844,562.1905 -95.5475,65.75 -247.6098,-12.1712 -201.0031,-135.623 79.7766,-200.8413 250.4523,-346.1967 369.715,-522.9575 37.2992,-52.1475 111.6525,-148.3436 -3.2106,-93.6141 -131.0462,24.829 -272.8249,71.9389 -403.4869,27.2541 -114.5709,-92.697 -192.6597,-223.3829 -290.542,-333.118 -38.8281,-51.2621 -200.9498,-240.7992 -75.878,-110.562 133.0503,125.6582 251.9589,267.6631 391.72,385.14 123.3569,24.0565 249.4449,-32.0282 368.53,-62.22 83.931,-61.6971 238.4082,-11.6031 181.94,107.29 -92.948,219.1858 -268.9091,388.2351 -383.24,594.92 318.116,-176.5627 578.1953,-442.5529 901.3188,-611.0137 76.2428,-50.0282 211.5178,-32.1925 220.7812,75.4337 -1.548,144.5873 -101.1091,265.835 -166.5143,388.3772 -186.2653,301.7368 -398.1799,586.3833 -597.6257,879.2928 747.9005,-318.5644 1486.4454,-658.9342 2237.54,-970.12 z"
           id="path829"
           inkscape:connector-curvature="0" />
      </g>
    </g>
  </g>
</svg>
